<?xml version="1.0" encoding="UTF-8" standalone="no"?>
<!DOCTYPE svg PUBLIC "-//W3C//DTD SVG 1.1//EN" "http://www.w3.org/Graphics/SVG/1.1/DTD/svg11.dtd">
<svg width="100%" height="100%" viewBox="0 0 512 512" version="1.1" xmlns="http://www.w3.org/2000/svg" xmlns:xlink="http://www.w3.org/1999/xlink" xml:space="preserve" xmlns:serif="http://www.serif.com/" style="fill-rule:evenodd;clip-rule:evenodd;stroke-miterlimit:1.5;">
    <g transform="matrix(1,0,0,1,-2,-542)">
        <g id="Box">
        </g>
        <g id="WW">
        </g>
        <g id="ArtBoard4" transform="matrix(0.994175,0,0,1.6732,2,-361.529)">
            <rect x="0" y="540" width="515" height="306" style="fill:none;"/>
            <clipPath id="_clip1">
                <rect x="0" y="540" width="515" height="306"/>
            </clipPath>
            <g clip-path="url(#_clip1)">
                <g id="bg">
                    <g transform="matrix(1.18664,0,0,0.705069,-65.265,133.88)">
                        <path d="M489,645.44C489,607.115 457.885,576 419.56,576L124.44,576C86.115,576 55,607.115 55,645.44L55,940.56C55,978.885 86.115,1010 124.44,1010L419.56,1010C457.885,1010 489,978.885 489,940.56L489,645.44Z" style="fill:rgb(1,82,169);"/>
                    </g>
                    <g transform="matrix(2.7048e-17,-0.262463,2.13698,7.7749e-17,-1258.68,717.147)">
                        <ellipse cx="375.5" cy="709.5" rx="283.5" ry="132.5" style="fill:url(#_Linear2);"/>
                    </g>
                </g>
                <g id="kartenlesegerät" transform="matrix(1,0,0,1,-48.9099,-5.68434e-14)">
                    <g id="Kreditkarte">
                        <g transform="matrix(2.30547,0,0,0.597656,-513.355,216.668)">
                            <path d="M425,681.375C425,663.507 418.671,649 410.875,649L382.625,649C374.829,649 368.5,663.507 368.5,681.375L368.5,863.125C368.5,880.993 374.829,895.5 382.625,895.5L410.875,895.5C418.671,895.5 425,880.993 425,863.125L425,681.375Z" style="fill:rgb(214,9,9);"/>
                        </g>
                        <g transform="matrix(6.15911e-17,0.597656,-1.00586,3.65959e-17,1183.25,429.874)">
                            <text x="385.043px" y="752.759px" style="font-family:'ArialNarrow', 'Arial', sans-serif;font-stretch:condensed;font-size:20.833px;fill:white;">LS12345678</text>
                        </g>
                        <g transform="matrix(6.15911e-17,0.597656,-1.00586,3.65959e-17,1151.91,440.055)">
                            <text x="368.77px" y="752.817px" style="font-family:'ArialNarrow', 'Arial', sans-serif;font-stretch:condensed;font-size:20.833px;fill:white;">John Doe</text>
                        </g>
                    </g>
                    <g transform="matrix(3.35654e-17,0.325705,-0.548164,1.99437e-17,831.851,376.326)">
                        <g id="Mazebank-Logo" serif:id="Mazebank Logo">
                            <path d="M753,798L753,698L773,698L773,780.5L793,780.5L793,698L813,698L813,781L833,781L833,680" style="fill:none;stroke:white;stroke-width:11.13px;"/>
                        </g>
                    </g>
                    <g transform="matrix(0.651891,0,0,0.580383,81.8153,220.568)">
                        <path d="M440,650.103C440,645.079 433.888,641 426.36,641L112.64,641C105.112,641 99,645.079 99,650.103L99,977.897C99,982.921 105.112,987 112.64,987L426.36,987C433.888,987 440,982.921 440,977.897L440,650.103Z" style="fill:white;"/>
                    </g>
                    <g id="Bildschirm">
                        <g transform="matrix(1.20565,0,0,0.711135,-78.8773,135.198)">
                            <path d="M352,663.16C352,661.416 350.594,660 348.863,660L209.137,660C207.406,660 206,661.416 206,663.16L206,735.84C206,737.584 207.406,739 209.137,739L348.863,739C350.594,739 352,737.584 352,735.84L352,663.16Z" style="fill:rgb(137,193,252);"/>
                            <path d="M355.332,663.16C355.332,659.564 352.433,656.644 348.863,656.644C348.863,656.644 209.137,656.644 209.137,656.644C205.567,656.644 202.668,659.564 202.668,663.16C202.668,663.16 202.668,735.84 202.668,735.84C202.668,739.436 205.567,742.356 209.137,742.356L348.863,742.356C352.433,742.356 355.332,739.436 355.332,735.84C355.332,735.84 355.332,663.16 355.332,663.16ZM352,663.16C352,661.416 350.594,660 348.863,660L209.137,660C207.406,660 206,661.416 206,663.16L206,735.84C206,737.584 207.406,739 209.137,739L348.863,739C350.594,739 352,737.584 352,735.84L352,663.16Z"/>
                        </g>
                        <g id="wifi" transform="matrix(1,0,0,1.33333,-0.710527,-201.975)">
                            <g transform="matrix(1.00586,0,0,0.597656,55.9509,215.473)">
                                <rect x="284" y="652" width="1" height="3"/>
                            </g>
                            <g transform="matrix(1.00586,0,0,0.448242,53.9392,313.339)">
                                <rect x="284" y="652" width="1" height="3"/>
                            </g>
                            <g transform="matrix(1.00586,0,0,0.336182,51.9275,386.739)">
                                <rect x="284" y="652" width="1" height="3"/>
                            </g>
                        </g>
                        <g transform="matrix(1.00586,0,0,0.597656,38.0643,217.353)">
                            <text x="143.908px" y="679.417px" style="font-family:'ArialNarrow', 'Arial', sans-serif;font-stretch:condensed;font-size:20.833px;">Sie werden gerade</text>
                            <text x="143.908px" y="700.25px" style="font-family:'ArialNarrow', 'Arial', sans-serif;font-stretch:condensed;font-size:20.833px;">abgezockt!</text>
                            <text x="143.908px" y="721.084px" style="font-family:'ArialNarrow', 'Arial', sans-serif;font-stretch:condensed;font-size:20.833px;">Mit Grün bestätigen</text>
                        </g>
                        <g transform="matrix(1.69255,0,0,0.0996094,-48.8519,542.191)">
                            <rect x="129" y="656" width="104" height="6" style="fill:rgb(86,86,86);"/>
                        </g>
                        <g transform="matrix(1.34115,0,0,0.796875,5.32267,85.6686)">
                            <circle cx="125.5" cy="653.065" r="1.5"/>
                        </g>
                        <g transform="matrix(1.00586,0,0,0.597656,46.611,217.062)">
                            <text x="125.469px" y="652.403px" style="font-family:'ArialNarrow', 'Arial', sans-serif;font-stretch:condensed;font-size:4.167px;fill:white;">1</text>
                        </g>
                    </g>
                    <g id="tastenfeld">
                        <g transform="matrix(0.206683,0,0,0.226958,126.911,532.749)">
                            <path d="M352,663.16C352,661.416 349.383,660 346.16,660L211.84,660C208.617,660 206,661.416 206,663.16L206,735.84C206,737.584 208.617,739 211.84,739L346.16,739C349.383,739 352,737.584 352,735.84L352,663.16Z"/>
                        </g>
                        <g transform="matrix(0.206683,0,0,0.226958,126.911,562.632)">
                            <path d="M352,663.16C352,661.416 349.383,660 346.16,660L211.84,660C208.617,660 206,661.416 206,663.16L206,735.84C206,737.584 208.617,739 211.84,739L346.16,739C349.383,739 352,737.584 352,735.84L352,663.16Z"/>
                        </g>
                        <g transform="matrix(0.206683,0,0,0.226958,126.911,592.514)">
                            <path d="M352,663.16C352,661.416 349.383,660 346.16,660L211.84,660C208.617,660 206,661.416 206,663.16L206,735.84C206,737.584 208.617,739 211.84,739L346.16,739C349.383,739 352,737.584 352,735.84L352,663.16Z"/>
                        </g>
                        <g transform="matrix(0.206683,0,0,0.226958,175.192,532.749)">
                            <path d="M352,663.16C352,661.416 349.383,660 346.16,660L211.84,660C208.617,660 206,661.416 206,663.16L206,735.84C206,737.584 208.617,739 211.84,739L346.16,739C349.383,739 352,737.584 352,735.84L352,663.16Z"/>
                        </g>
                        <g transform="matrix(0.206683,0,0,0.226958,175.192,562.632)">
                            <path d="M352,663.16C352,661.416 349.383,660 346.16,660L211.84,660C208.617,660 206,661.416 206,663.16L206,735.84C206,737.584 208.617,739 211.84,739L346.16,739C349.383,739 352,737.584 352,735.84L352,663.16Z"/>
                        </g>
                        <g transform="matrix(0.206683,0,0,0.226958,175.192,592.514)">
                            <path d="M352,663.16C352,661.416 349.383,660 346.16,660L211.84,660C208.617,660 206,661.416 206,663.16L206,735.84C206,737.584 208.617,739 211.84,739L346.16,739C349.383,739 352,737.584 352,735.84L352,663.16Z"/>
                        </g>
                        <g transform="matrix(0.206683,0,0,0.226958,223.473,532.749)">
                            <path d="M352,663.16C352,661.416 349.383,660 346.16,660L211.84,660C208.617,660 206,661.416 206,663.16L206,735.84C206,737.584 208.617,739 211.84,739L346.16,739C349.383,739 352,737.584 352,735.84L352,663.16Z"/>
                        </g>
                        <g transform="matrix(0.206683,0,0,0.226958,223.473,562.632)">
                            <path d="M352,663.16C352,661.416 349.383,660 346.16,660L211.84,660C208.617,660 206,661.416 206,663.16L206,735.84C206,737.584 208.617,739 211.84,739L346.16,739C349.383,739 352,737.584 352,735.84L352,663.16Z"/>
                        </g>
                        <g transform="matrix(0.206683,0,0,0.226958,223.473,592.514)">
                            <path d="M352,663.16C352,661.416 349.383,660 346.16,660L211.84,660C208.617,660 206,661.416 206,663.16L206,735.84C206,737.584 208.617,739 211.84,739L346.16,739C349.383,739 352,737.584 352,735.84L352,663.16Z"/>
                        </g>
                        <g transform="matrix(0.206683,0,0,0.226958,272.76,532.749)">
                            <path d="M352,663.16C352,661.416 349.383,660 346.16,660L211.84,660C208.617,660 206,661.416 206,663.16L206,735.84C206,737.584 208.617,739 211.84,739L346.16,739C349.383,739 352,737.584 352,735.84L352,663.16Z" style="fill:rgb(255,0,36);"/>
                        </g>
                        <g transform="matrix(0.206683,0,0,0.226958,272.76,562.632)">
                            <path d="M352,663.16C352,661.416 349.383,660 346.16,660L211.84,660C208.617,660 206,661.416 206,663.16L206,735.84C206,737.584 208.617,739 211.84,739L346.16,739C349.383,739 352,737.584 352,735.84L352,663.16Z" style="fill:rgb(255,215,0);"/>
                        </g>
                        <g transform="matrix(0.206683,0,0,0.226958,272.76,592.514)">
                            <path d="M352,663.16C352,661.416 349.383,660 346.16,660L211.84,660C208.617,660 206,661.416 206,663.16L206,735.84C206,737.584 208.617,739 211.84,739L346.16,739C349.383,739 352,737.584 352,735.84L352,663.16Z" style="fill:rgb(26,118,23);"/>
                        </g>
                    </g>
                </g>
            </g>
        </g>
    </g>
    <defs>
        <linearGradient id="_Linear2" x1="0" y1="0" x2="1" y2="0" gradientUnits="userSpaceOnUse" gradientTransform="matrix(567,0,0,265,92,709.5)"><stop offset="0" style="stop-color:rgb(227,227,227);stop-opacity:1"/><stop offset="0.1" style="stop-color:rgb(129,164,202);stop-opacity:1"/><stop offset="0.21" style="stop-color:rgb(38,106,179);stop-opacity:1"/><stop offset="0.56" style="stop-color:rgb(1,82,169);stop-opacity:1"/><stop offset="1" style="stop-color:rgb(1,82,169);stop-opacity:1"/></linearGradient>
    </defs>
</svg>
